<?xml version="1.0" encoding="utf-8"?>
<!-- Generator: Adobe Illustrator 17.0.0, SVG Export Plug-In . SVG Version: 6.00 Build 0)  -->
<!DOCTYPE svg PUBLIC "-//W3C//DTD SVG 1.1//EN" "http://www.w3.org/Graphics/SVG/1.1/DTD/svg11.dtd">
<svg version="1.1" id="Layer_1" xmlns="http://www.w3.org/2000/svg" xmlns:xlink="http://www.w3.org/1999/xlink" x="0px" y="0px"
	 width="161.167px" height="24.167px" viewBox="0 0 161.167 24.167" enable-background="new 0 0 161.167 24.167"
	 xml:space="preserve">
<g>
	<g>
		<g>
			<defs>
				<path id="SVGID_1_" d="M8.974,21.282c3.288-2.475,5.787-5.833,5.777-10.791c0.009-0.483,0.389-0.875,0.866-0.875
					c0.473,0,0.857,0.397,0.857,0.865C16.466,15.374,13.244,19.539,8.974,21.282z M12.881,10.587c0,6.213-5.087,11.25-11.363,11.25
					c-0.295,0-0.587-0.011-0.877-0.033c2.058,1.256,4.487,1.977,7.126,1.977c6.88,0,12.809-5.708,12.873-13.889
					c-0.005-0.083,0-4.444-4.166-4.444c-2.52,0-3.593,1.517-3.593,4.155C12.881,9.714,12.881,10.354,12.881,10.587z"/>
			</defs>
			<use xlink:href="#SVGID_1_"  overflow="visible" fill-rule="evenodd" clip-rule="evenodd" fill="#FFFFFF"/>
			<clipPath id="SVGID_2_">
				<use xlink:href="#SVGID_1_"  overflow="visible"/>
			</clipPath>
			<g clip-path="url(#SVGID_2_)">
				<defs>
					<rect id="SVGID_3_" x="-76.026" y="-63.718" width="319.167" height="269.167"/>
				</defs>
				<use xlink:href="#SVGID_3_"  overflow="visible" fill="#FFFFFF"/>
				<clipPath id="SVGID_4_">
					<use xlink:href="#SVGID_3_"  overflow="visible"/>
				</clipPath>
				<rect x="-3.526" y="1.282" clip-path="url(#SVGID_4_)" fill="#FFFFFF" width="28.333" height="26.667"/>
			</g>
		</g>
	</g>
	<g>
		<g>
			<defs>
				<path id="SVGID_5_" d="M17.888,1.608c-1.099,1.974-1.366,4.362-0.904,6.592l0.711,0.41c-0.002-1.905,0.464-3.876,1.457-5.707
					l0.401-0.681c0.252-0.437,0.323-1.012-0.229-1.331C18.557,0.449,17.888,1.608,17.888,1.608z"/>
			</defs>
			<use xlink:href="#SVGID_5_"  overflow="visible" fill-rule="evenodd" clip-rule="evenodd" fill="#FFFFFF"/>
			<clipPath id="SVGID_6_">
				<use xlink:href="#SVGID_5_"  overflow="visible"/>
			</clipPath>
			<g clip-path="url(#SVGID_6_)">
				<defs>
					<rect id="SVGID_7_" x="-76.026" y="-63.718" width="319.167" height="269.167"/>
				</defs>
				<use xlink:href="#SVGID_7_"  overflow="visible" fill="#FFFFFF"/>
				<clipPath id="SVGID_8_">
					<use xlink:href="#SVGID_7_"  overflow="visible"/>
				</clipPath>
				
					<rect x="12.292" y="-3.387" transform="matrix(-0.866 -0.5 0.5 -0.866 31.5584 17.5151)" clip-path="url(#SVGID_8_)" fill="#FFFFFF" width="11.667" height="15.833"/>
			</g>
		</g>
	</g>
	<g>
		<g>
			<defs>
				<polygon id="SVGID_9_" points="125.641,6.282 125.641,12.949 138.974,12.949 138.974,6.282 140.641,6.282 140.641,22.115 
					138.974,22.115 138.974,14.615 125.641,14.615 125.641,22.115 123.974,22.115 123.974,6.282 				"/>
			</defs>
			<use xlink:href="#SVGID_9_"  overflow="visible" fill-rule="evenodd" clip-rule="evenodd" fill="#FFFFFF"/>
			<clipPath id="SVGID_10_">
				<use xlink:href="#SVGID_9_"  overflow="visible"/>
			</clipPath>
			<g clip-path="url(#SVGID_10_)">
				<defs>
					<rect id="SVGID_11_" x="-76.026" y="-63.718" width="319.167" height="269.167"/>
				</defs>
				<use xlink:href="#SVGID_11_"  overflow="visible" fill="#FFFFFF"/>
				<clipPath id="SVGID_12_">
					<use xlink:href="#SVGID_11_"  overflow="visible"/>
				</clipPath>
				<rect x="119.807" y="2.115" clip-path="url(#SVGID_12_)" fill="#FFFFFF" width="25" height="24.167"/>
			</g>
		</g>
	</g>
	<g>
		<g>
			<defs>
				<path id="SVGID_13_" d="M158.974,11.395v-0.86c0-2.586-1.313-2.586-3.341-2.586h-9.993v5.833h9.993
					C157.712,13.782,158.974,13.782,158.974,11.395z M155.729,6.282c1.055,0,1.908,0.095,2.557,0.284
					c0.65,0.189,1.147,0.47,1.492,0.842c0.346,0.372,0.575,0.839,0.69,1.4c0.115,0.561,0.172,1.213,0.172,1.957v1.29
					c0,0.555-0.068,1.017-0.203,1.388c-0.135,0.372-0.324,0.671-0.568,0.897c-0.244,0.226-0.532,0.39-0.863,0.492
					c-0.331,0.102-0.686,0.175-1.065,0.219c0.501,0.146,0.917,0.288,1.248,0.471c0.332,0.182,0.589,0.404,0.772,0.667
					c0.182,0.262,0.31,0.55,0.385,0.864c0.074,0.314,0.112,0.653,0.112,1.017v4.046h-1.868v-3.478c0-0.612-0.068-1.443-0.203-1.814
					c-0.136-0.372-0.329-0.652-0.579-0.842c-0.251-0.19-0.559-0.313-0.924-0.372c-0.365-0.058-0.771-0.087-1.217-0.087h-10.106
					v6.593h-1.587V6.282H155.729z"/>
			</defs>
			<use xlink:href="#SVGID_13_"  overflow="visible" fill-rule="evenodd" clip-rule="evenodd" fill="#FFFFFF"/>
			<clipPath id="SVGID_14_">
				<use xlink:href="#SVGID_13_"  overflow="visible"/>
			</clipPath>
			<g clip-path="url(#SVGID_14_)">
				<defs>
					<rect id="SVGID_15_" x="-76.026" y="-63.718" width="319.167" height="269.167"/>
				</defs>
				<use xlink:href="#SVGID_15_"  overflow="visible" fill="#FFFFFF"/>
				<clipPath id="SVGID_16_">
					<use xlink:href="#SVGID_15_"  overflow="visible"/>
				</clipPath>
				<rect x="139.807" y="2.115" clip-path="url(#SVGID_16_)" fill="#FFFFFF" width="25" height="24.167"/>
			</g>
		</g>
	</g>
	<g>
		<g>
			<defs>
				<rect id="SVGID_17_" x="27.307" y="6.282" width="4.167" height="15.833"/>
			</defs>
			<use xlink:href="#SVGID_17_"  overflow="visible" fill-rule="evenodd" clip-rule="evenodd" fill="#FFFFFF"/>
			<clipPath id="SVGID_18_">
				<use xlink:href="#SVGID_17_"  overflow="visible"/>
			</clipPath>
			<g clip-path="url(#SVGID_18_)">
				<defs>
					<rect id="SVGID_19_" x="-76.026" y="-63.718" width="319.167" height="269.167"/>
				</defs>
				<use xlink:href="#SVGID_19_"  overflow="visible" fill="#FFFFFF"/>
				<clipPath id="SVGID_20_">
					<use xlink:href="#SVGID_19_"  overflow="visible"/>
				</clipPath>
				<rect x="23.141" y="2.115" clip-path="url(#SVGID_20_)" fill="#FFFFFF" width="12.5" height="24.167"/>
			</g>
		</g>
	</g>
	<g>
		<g>
			<defs>
				<polyline id="SVGID_21_" points="33.974,6.282 41.25,6.282 50.07,17.785 50.112,17.785 50.112,6.282 54.807,6.282 
					54.807,22.115 47.531,22.115 38.711,10.612 38.67,10.612 38.67,22.115 33.974,22.115 33.974,6.282 				"/>
			</defs>
			<use xlink:href="#SVGID_21_"  overflow="visible" fill-rule="evenodd" clip-rule="evenodd" fill="#FFFFFF"/>
			<clipPath id="SVGID_22_">
				<use xlink:href="#SVGID_21_"  overflow="visible"/>
			</clipPath>
			<g clip-path="url(#SVGID_22_)">
				<defs>
					<rect id="SVGID_23_" x="-76.026" y="-63.718" width="319.167" height="269.167"/>
				</defs>
				<use xlink:href="#SVGID_23_"  overflow="visible" fill="#FFFFFF"/>
				<clipPath id="SVGID_24_">
					<use xlink:href="#SVGID_23_"  overflow="visible"/>
				</clipPath>
				<rect x="29.807" y="2.115" clip-path="url(#SVGID_24_)" fill="#FFFFFF" width="29.167" height="24.167"/>
			</g>
		</g>
	</g>
	<g>
		<g>
			<defs>
				<path id="SVGID_25_" d="M70.318,18.597c0.475,0,0.878-0.044,1.208-0.132c0.33-0.089,0.598-0.24,0.802-0.454
					c0.205-0.213,0.356-0.505,0.455-0.873c0.099-0.369,0.149-0.841,0.149-1.416v-3.047c0-0.575-0.049-1.047-0.149-1.415
					c-0.099-0.369-0.25-0.66-0.455-0.874c-0.205-0.213-0.472-0.365-0.802-0.454C71.196,9.844,70.793,9.8,70.318,9.8h-7.803v8.796
					H70.318z M71.697,6.282c1.188,0,2.193,0.102,3.017,0.306c0.823,0.204,1.489,0.529,1.998,0.973
					c0.508,0.445,0.873,1.017,1.095,1.717c0.222,0.7,0.334,1.539,0.334,2.515v4.812c0,0.977-0.112,1.814-0.334,2.515
					c-0.222,0.7-0.587,1.272-1.095,1.716c-0.509,0.445-1.174,0.77-1.998,0.973c-0.824,0.205-1.829,0.306-3.017,0.306h-14.39V6.282
					H71.697z"/>
			</defs>
			<use xlink:href="#SVGID_25_"  overflow="visible" fill-rule="evenodd" clip-rule="evenodd" fill="#FFFFFF"/>
			<clipPath id="SVGID_26_">
				<use xlink:href="#SVGID_25_"  overflow="visible"/>
			</clipPath>
			<g clip-path="url(#SVGID_26_)">
				<defs>
					<rect id="SVGID_27_" x="-76.026" y="-63.718" width="319.167" height="269.167"/>
				</defs>
				<use xlink:href="#SVGID_27_"  overflow="visible" fill="#FFFFFF"/>
				<clipPath id="SVGID_28_">
					<use xlink:href="#SVGID_27_"  overflow="visible"/>
				</clipPath>
				<rect x="53.141" y="2.115" clip-path="url(#SVGID_28_)" fill="#FFFFFF" width="29.167" height="24.167"/>
			</g>
		</g>
	</g>
	<g>
		<g>
			<defs>
				<polyline id="SVGID_29_" points="106.969,14.177 100.312,6.282 106.101,6.282 110.641,11.815 115.18,6.282 120.97,6.282 
					114.312,14.177 121.474,22.115 115.462,22.115 110.641,16.364 105.82,22.115 99.807,22.115 106.969,14.177 				"/>
			</defs>
			<use xlink:href="#SVGID_29_"  overflow="visible" fill-rule="evenodd" clip-rule="evenodd" fill="#FFFFFF"/>
			<clipPath id="SVGID_30_">
				<use xlink:href="#SVGID_29_"  overflow="visible"/>
			</clipPath>
			<g clip-path="url(#SVGID_30_)">
				<defs>
					<rect id="SVGID_31_" x="-76.026" y="-63.718" width="319.167" height="269.167"/>
				</defs>
				<use xlink:href="#SVGID_31_"  overflow="visible" fill="#FFFFFF"/>
				<clipPath id="SVGID_32_">
					<use xlink:href="#SVGID_31_"  overflow="visible"/>
				</clipPath>
				<rect x="95.641" y="2.115" clip-path="url(#SVGID_32_)" fill="#FFFFFF" width="30" height="24.167"/>
			</g>
		</g>
	</g>
	<g>
		<g>
			<defs>
				<path id="SVGID_33_" d="M94.633,11.083c-0.117-0.342-0.331-0.61-0.642-0.807c-0.311-0.195-0.729-0.323-1.255-0.385
					C92.21,9.831,90.373,9.8,89.556,9.8c-0.914,0-2.58,0.031-3.115,0.092c-0.535,0.062-0.944,0.19-1.226,0.385
					c-0.282,0.196-0.467,0.465-0.554,0.807c-0.088,0.343-0.131,0.794-0.131,1.356h10.278C94.807,11.878,94.749,11.426,94.633,11.083
					z M80.273,9.804c0.31-0.923,0.753-1.645,1.329-2.167c0.575-0.522,1.255-0.878,2.04-1.069c0.785-0.19,1.661-0.286,2.63-0.286
					h4.814c1.387,0,2.583,0.096,3.588,0.286c1.003,0.191,1.821,0.532,2.451,1.024c0.629,0.492,1.095,1.169,1.396,2.031
					c0.301,0.864,0.453,1.957,0.453,3.281v2.589H84.503v0.933c0.165,2.077,1.769,2.077,3.232,2.077h3.609
					c0.713,0,1.269-0.05,1.671-0.151c0.402-0.1,0.699-0.23,0.89-0.391c0.192-0.16,0.31-0.347,0.356-0.557
					c0.045-0.211,0.069-0.426,0.069-0.647h4.645v0.662c0,0.964-0.184,1.752-0.549,2.363c-0.365,0.613-0.863,1.089-1.493,1.43
					c-0.63,0.342-1.365,0.578-2.204,0.708c-0.84,0.131-1.735,0.196-2.684,0.196h-5.089c-0.876,0-1.739-0.071-2.587-0.211
					c-0.85-0.14-1.613-0.461-2.287-0.963c-0.676-0.501-1.224-1.234-1.644-2.198c-0.42-0.963-0.63-2.267-0.63-3.913v-1.475
					C79.807,11.911,79.962,10.727,80.273,9.804z"/>
			</defs>
			<use xlink:href="#SVGID_33_"  overflow="visible" fill-rule="evenodd" clip-rule="evenodd" fill="#FFFFFF"/>
			<clipPath id="SVGID_34_">
				<use xlink:href="#SVGID_33_"  overflow="visible"/>
			</clipPath>
			<g clip-path="url(#SVGID_34_)">
				<defs>
					<rect id="SVGID_35_" x="-76.026" y="-63.718" width="319.167" height="269.167"/>
				</defs>
				<use xlink:href="#SVGID_35_"  overflow="visible" fill="#FFFFFF"/>
				<clipPath id="SVGID_36_">
					<use xlink:href="#SVGID_35_"  overflow="visible"/>
				</clipPath>
				<rect x="75.641" y="2.115" clip-path="url(#SVGID_36_)" fill="#FFFFFF" width="27.5" height="24.167"/>
			</g>
		</g>
	</g>
</g>
</svg>
